<svg width="830" height="603" viewBox="0 0 830 603" fill="none" xmlns="http://www.w3.org/2000/svg">
<g opacity="0.5">
<path d="M200.655 298.027C165.882 274.085 72.5442 306.097 46.2765 351.651C20.0088 397.204 74.3586 527.829 136.384 536.727C198.41 545.625 312.953 514.643 315.804 468.47C318.655 422.297 282.172 435.789 245.689 416.026C180.545 380.738 235.429 321.969 200.655 298.027Z" fill="#F20FD7"/>
<path d="M432.158 269.285C514.546 291.292 492.518 196.665 560.923 188.114C629.328 179.564 617.348 357.987 595.125 408.151C582.324 437.047 549.493 476.441 470.651 488.527C412.623 497.421 359.494 488.527 336.121 437.223C312.748 385.919 235.794 424.337 246.056 345.446C256.318 266.555 349.769 247.279 432.158 269.285Z" fill="white"/>
<path d="M515.981 93.7059C541.314 127.056 518.12 252.908 427.021 252.908C387.033 252.908 360.524 232.443 309.861 240.781C259.197 249.118 263.034 301.175 210.281 287.218C157.527 273.261 200.096 128.97 244.421 90.6663C306.696 36.8522 361.553 100.52 424.883 72.4756C488.214 44.4316 515.981 93.7059 515.981 93.7059Z" fill="#3CD4B9"/>
<path d="M760.149 287.817C708.703 323.763 670.78 306.025 637.689 266.588C620.825 246.49 617.471 157.792 559.322 131.671C501.172 105.55 570.585 46.3173 629.734 50.885C688.883 55.4527 719.014 134.092 759.052 151.265C799.09 168.438 811.595 251.872 760.149 287.817Z" fill="#6236FF"/>
<path d="M792.586 363.279C739.843 341.559 615.234 313.636 624 380.862C632.766 448.087 581.588 482.217 485.419 518.416C389.25 554.615 461.629 600.124 528.852 602.191C596.074 604.259 755.343 549.443 795.679 518.416C836.015 487.388 845.33 384.998 792.586 363.279Z" fill="#F4D916"/>
</g>
</svg>
