<svg width="150" height="39" viewBox="0 0 150 39" fill="none" xmlns="http://www.w3.org/2000/svg">
<rect x="103.005" width="4.29185" height="24.0343" rx="2.14592" fill="#484848"/>
<path d="M75.517 5.66908C75.8978 5.24419 76.4414 5.0014 77.012 5.0014V5.0014C78.7328 5.0014 79.6561 7.02469 78.5284 8.32453L68.777 19.5652C67.9879 20.4748 66.602 20.549 65.7203 19.7288V19.7288C64.8711 18.9389 64.811 17.6144 65.5851 16.7507L75.517 5.66908Z" fill="#484848"/>
<rect x="64.1631" width="4.29185" height="24.0343" rx="2.14592" fill="#484848"/>
<path d="M79.9024 20.9852C80.8572 22.3127 79.9085 24.1636 78.2733 24.1636V24.1636C77.6451 24.1636 77.053 23.8694 76.6737 23.3686L71.3227 16.3043C70.5835 15.3284 70.8241 13.9307 71.8471 13.2581V13.2581C72.7949 12.6349 74.0655 12.8698 74.7279 13.7907L79.9024 20.9852Z" fill="#484848"/>
<rect width="4.29185" height="24.0343" rx="2.14592" fill="#484848"/>
<path fill-rule="evenodd" clip-rule="evenodd" d="M10.0856 24.034C15.3003 24.034 19.5277 19.8067 19.5277 14.592C19.5277 9.37726 15.3003 5.1499 10.0856 5.1499C4.87091 5.1499 0.643555 9.37726 0.643555 14.592C0.643555 19.8067 4.87091 24.034 10.0856 24.034ZM9.6567 20.601C12.6196 20.601 15.0215 18.0069 15.0215 14.807C15.0215 11.6071 12.6196 9.01302 9.6567 9.01302C6.6938 9.01302 4.29189 11.6071 4.29189 14.807C4.29189 18.0069 6.6938 20.601 9.6567 20.601Z" fill="#484848"/>
<rect x="130.258" width="4.29185" height="24.0343" rx="2.14592" fill="#484848"/>
<path fill-rule="evenodd" clip-rule="evenodd" d="M140.343 24.2489C145.558 24.2489 149.785 20.0215 149.785 14.8068C149.785 9.5921 145.558 5.36475 140.343 5.36475C135.129 5.36475 130.901 9.5921 130.901 14.8068C130.901 20.0215 135.129 24.2489 140.343 24.2489ZM140.129 20.601C143.092 20.601 145.494 18.0069 145.494 14.807C145.494 11.6071 143.092 9.01302 140.129 9.01302C137.166 9.01302 134.764 11.6071 134.764 14.807C134.764 18.0069 137.166 20.601 140.129 20.601Z" fill="#484848"/>
<path fill-rule="evenodd" clip-rule="evenodd" d="M31.0091 24.0342C36.4015 24.0342 40.773 19.6628 40.773 14.2703C40.773 8.87782 36.4015 4.50635 31.0091 4.50635C25.6166 4.50635 21.2451 8.87782 21.2451 14.2703C21.2451 19.6628 25.6166 24.0342 31.0091 24.0342ZM31.1162 20.1718C34.0791 20.1718 36.481 17.5777 36.481 14.3778C36.481 11.1778 34.0791 8.58379 31.1162 8.58379C28.1533 8.58379 25.7514 11.1778 25.7514 14.3778C25.7514 17.5777 28.1533 20.1718 31.1162 20.1718Z" fill="#484848"/>
<path d="M96.1463 12.1244C95.3324 10.0437 93.4252 8.5836 91.2023 8.5836C88.2394 8.5836 85.8375 11.1777 85.8375 14.3776C85.8375 17.5775 88.2394 20.1716 91.2023 20.1716C93.4632 20.1716 95.3975 18.6611 96.1871 16.5235C96.2244 16.4227 96.3525 16.0943 96.6744 15.987C96.9963 15.8797 97.3182 15.8797 97.3182 15.8797H99.6787C99.6787 15.8797 100.668 15.8797 100.43 17.06C99.5303 21.5235 95.8235 24.0342 91.095 24.0342C85.7025 24.0342 81.3311 19.6628 81.3311 14.2703C81.3311 8.87782 85.7025 4.50635 91.095 4.50635C95.2792 4.50635 98.8486 7.13823 100.238 10.8368C100.238 10.8368 100.644 11.9098 99.1422 12.339C97.6401 12.7682 97.7474 12.7682 97.7474 12.7682C96.3525 13.1973 96.1463 12.1244 96.1463 12.1244Z" fill="#484848"/>
<path fill-rule="evenodd" clip-rule="evenodd" d="M52.2532 24.0342C57.6457 24.0342 62.0172 19.6628 62.0172 14.2703C62.0172 8.87782 57.6457 4.50635 52.2532 4.50635C46.8607 4.50635 42.4893 8.87782 42.4893 14.2703C42.4893 19.6628 46.8607 24.0342 52.2532 24.0342ZM52.3609 20.1718C55.3238 20.1718 57.7257 17.5777 57.7257 14.3778C57.7257 11.1778 55.3238 8.58379 52.3609 8.58379C49.398 8.58379 46.9961 11.1778 46.9961 14.3778C46.9961 17.5777 49.398 20.1718 52.3609 20.1718Z" fill="#484848"/>
<path d="M122.961 6.52003C122.961 6.00064 123.382 5.57959 123.901 5.57959H126.312C126.832 5.57959 127.253 6.00064 127.253 6.52003V23.0941C127.253 23.6135 126.832 24.0345 126.312 24.0345H123.901C123.382 24.0345 122.961 23.6135 122.961 23.0941V6.52003Z" fill="#484848"/>
<path d="M110.515 6.73453C110.515 6.21514 110.936 5.79409 111.455 5.79409H113.866C114.385 5.79409 114.806 6.21514 114.806 6.73453V17.985C114.806 18.0122 114.807 18.038 114.811 18.0649C114.853 18.3799 115.237 20.4937 117.918 20.4937C119.462 20.4937 121.25 19.5795 122.583 18.7255C123.31 18.2598 124.359 18.8599 124.245 19.7157L123.985 21.6678C123.948 21.9437 123.792 22.188 123.549 22.3224C122.593 22.849 119.943 24.1417 116.952 24.1417C113.197 24.1417 112.017 22.6396 111.373 21.7812C110.782 20.9929 110.553 19.0283 110.519 18.7127C110.516 18.6831 110.515 18.6547 110.515 18.6249V6.73453Z" fill="#484848"/>
<path d="M0 33.534V32.8902C0 32.8902 0.00122333 32.7829 0.00122333 31.8173C0.00122333 30.8516 0.965665 30.8516 0.965665 30.8516H63.3047C71.6738 30.8516 75.1415 34.0063 75.1415 34.0063C75.1415 34.0063 77.5751 30.8516 86.9784 30.8516H148.927C148.927 30.8516 149.999 30.7443 149.999 31.8173C149.999 32.8902 150 32.8902 150 32.8902V33.7486C150 34.607 148.927 34.4997 148.927 34.4997H86.9784C78.5408 34.4997 75.1415 38.5769 75.1415 38.5769C75.1415 38.5769 70.6009 34.4997 63.3047 34.4997H0.965665C0.965665 34.4997 0 34.4997 0 33.534Z" fill="#28C29B"/>
</svg>
