<svg width="53" height="70" viewBox="0 0 53 70" fill="none" xmlns="http://www.w3.org/2000/svg">
<path d="M43.8569 4.1931C42.0803 4.24749 9.62049 8.64482 9.62049 8.64482C9.62049 8.64482 6.41481 8.8095 6.11513 11.431C5.86032 13.66 6.5467 51.3257 6.75792 62.5536C6.79018 64.2686 8.25156 65.5886 9.96279 65.4702L43.0448 63.1825C44.6429 63.072 45.8723 61.7254 45.8371 60.1239L44.7282 9.5505C44.7149 8.94502 44.1717 8.48957 43.5732 8.58167C38.4807 9.36521 17.6618 12.4884 11.8823 12.0902C10.8792 12.0211 10.8937 11.4461 10.9536 10.9218C11.0136 10.3975 42.5632 6.7005 43.8943 6.18916C45.2254 5.67782 45.6335 4.13872 43.8569 4.1931Z" fill="black"/>
</svg>
