<svg width="120" height="34" viewBox="0 0 120 34" fill="none" xmlns="http://www.w3.org/2000/svg">
<rect x="82.0205" width="3.40487" height="19.0672" rx="1.70243" fill="white"/>
<path d="M60.2109 4.49578C60.513 4.15869 60.9443 3.96608 61.3969 3.96608V3.96608C62.7621 3.96608 63.4946 5.57122 62.6 6.60243L54.8639 15.5201C54.2379 16.2417 53.1383 16.3005 52.4389 15.6499V15.6499C51.7652 15.0231 51.7175 13.9724 52.3316 13.2872L60.2109 4.49578Z" fill="white"/>
<rect x="51.2012" width="3.40487" height="19.0672" rx="1.70243" fill="white"/>
<path d="M63.6893 16.6489C64.4468 17.702 63.6942 19.1704 62.3969 19.1704V19.1704C61.8985 19.1704 61.4288 18.937 61.1279 18.5397L56.8828 12.9354C56.2963 12.1612 56.4872 11.0523 57.2987 10.5187V10.5187C58.0507 10.0243 59.0587 10.2107 59.5842 10.9413L63.6893 16.6489Z" fill="white"/>
<rect x="0.307617" width="3.40487" height="19.0672" rx="1.70243" fill="white"/>
<path fill-rule="evenodd" clip-rule="evenodd" d="M8.30125 19.0691C12.4383 19.0691 15.792 15.7154 15.792 11.5784C15.792 7.44135 12.4383 4.08765 8.30125 4.08765C4.16425 4.08765 0.810547 7.44135 0.810547 11.5784C0.810547 15.7154 4.16425 19.0691 8.30125 19.0691ZM7.96434 16.3431C10.3149 16.3431 12.2204 14.2851 12.2204 11.7465C12.2204 9.20788 10.3149 7.14993 7.96434 7.14993C5.61378 7.14993 3.70826 9.20788 3.70826 11.7465C3.70826 14.2851 5.61378 16.3431 7.96434 16.3431Z" fill="white"/>
<rect x="103.642" width="3.40487" height="19.0672" rx="1.70243" fill="white"/>
<path fill-rule="evenodd" clip-rule="evenodd" d="M111.653 19.2353C115.79 19.2353 119.144 15.8816 119.144 11.7446C119.144 7.60761 115.79 4.25391 111.653 4.25391C107.516 4.25391 104.162 7.60761 104.162 11.7446C104.162 15.8816 107.516 19.2353 111.653 19.2353ZM111.477 16.3431C113.827 16.3431 115.733 14.2851 115.733 11.7465C115.733 9.20788 113.827 7.14993 111.477 7.14993C109.126 7.14993 107.221 9.20788 107.221 11.7465C107.221 14.2851 109.126 16.3431 111.477 16.3431Z" fill="white"/>
<path fill-rule="evenodd" clip-rule="evenodd" d="M24.9072 19.0668C29.1852 19.0668 32.6533 15.5988 32.6533 11.3208C32.6533 7.04274 29.1852 3.57471 24.9072 3.57471C20.6292 3.57471 17.1611 7.04274 17.1611 11.3208C17.1611 15.5988 20.6292 19.0668 24.9072 19.0668ZM24.9961 16.0011C27.3467 16.0011 29.2522 13.9431 29.2522 11.4045C29.2522 8.8659 27.3467 6.80794 24.9961 6.80794C22.6456 6.80794 20.7401 8.8659 20.7401 11.4045C20.7401 13.9431 22.6456 16.0011 24.9961 16.0011Z" fill="white"/>
<path d="M76.5786 9.61834C75.9329 7.96769 74.4199 6.80933 72.6564 6.80933C70.3058 6.80933 68.4003 8.86728 68.4003 11.4059C68.4003 13.9445 70.3058 16.0025 72.6564 16.0025C74.4501 16.0025 75.9846 14.8041 76.611 13.1083C76.6406 13.0283 76.7422 12.7678 76.9976 12.6827C77.253 12.5976 77.5083 12.5976 77.5083 12.5976H79.381C79.381 12.5976 80.1655 12.5976 79.9768 13.5339C79.2633 17.075 76.3225 19.0668 72.5713 19.0668C68.2932 19.0668 64.8252 15.5988 64.8252 11.3208C64.8252 7.04274 68.2932 3.57471 72.5713 3.57471C75.8907 3.57471 78.7225 5.66267 79.8249 8.59688C79.8249 8.59688 80.1471 9.4481 78.9554 9.78859C77.7637 10.1291 77.8488 10.1291 77.8488 10.1291C76.7422 10.4696 76.5786 9.61834 76.5786 9.61834Z" fill="white"/>
<path fill-rule="evenodd" clip-rule="evenodd" d="M41.7607 19.0668C46.0388 19.0668 49.5068 15.5988 49.5068 11.3208C49.5068 7.04274 46.0388 3.57471 41.7607 3.57471C37.4827 3.57471 34.0146 7.04274 34.0146 11.3208C34.0146 15.5988 37.4827 19.0668 41.7607 19.0668ZM41.8507 16.0011C44.2012 16.0011 46.1067 13.9431 46.1067 11.4045C46.1067 8.8659 44.2012 6.80794 41.8507 6.80794C39.5001 6.80794 37.5946 8.8659 37.5946 11.4045C37.5946 13.9431 39.5001 16.0011 41.8507 16.0011Z" fill="white"/>
<path d="M97.7599 5.16393C97.7599 4.75559 98.0909 4.42456 98.4993 4.42456H100.395C100.803 4.42456 101.134 4.75559 101.134 5.16393V18.1944C101.134 18.6028 100.803 18.9338 100.395 18.9338H98.4993C98.0909 18.9338 97.7599 18.6028 97.7599 18.1944V5.16393Z" fill="white"/>
<path d="M87.9746 5.33258C87.9746 4.92423 88.3056 4.5932 88.714 4.5932H90.6095C91.0178 4.5932 91.3489 4.92423 91.3489 5.33257V14.1777C91.3489 14.1991 91.3496 14.2193 91.3525 14.2405C91.3857 14.4882 91.6873 16.15 93.7952 16.15C95.009 16.15 96.4145 15.4312 97.4626 14.7598C98.0341 14.3937 98.8591 14.8655 98.7694 15.5383L98.5647 17.0731C98.5358 17.29 98.4136 17.4821 98.222 17.5877C97.4707 18.0017 95.3871 19.0181 93.036 19.0181C90.0835 19.0181 89.1556 17.8371 88.6495 17.1623C88.1847 16.5425 88.0044 14.9979 87.9781 14.7498C87.9756 14.7265 87.9746 14.7042 87.9746 14.6808V5.33258Z" fill="white"/>
<path d="M0.307617 29.0957V28.585C0.307617 28.585 0.308588 28.4999 0.308588 27.7338C0.308588 26.9677 1.07371 26.9677 1.07371 26.9677H50.5294C57.1688 26.9677 59.9199 29.4704 59.9199 29.4704C59.9199 29.4704 61.8505 26.9677 69.3105 26.9677H118.456C118.456 26.9677 119.307 26.8826 119.307 27.7338C119.307 28.585 119.308 28.585 119.308 28.585V29.266C119.308 29.947 118.456 29.8618 118.456 29.8618H69.3105C62.6166 29.8618 59.9199 33.0965 59.9199 33.0965C59.9199 33.0965 56.3176 29.8618 50.5294 29.8618H1.07371C1.07371 29.8618 0.307617 29.8618 0.307617 29.0957Z" fill="white"/>
</svg>
