<svg width="130" height="29" viewBox="0 0 130 29" fill="none" xmlns="http://www.w3.org/2000/svg">
<path d="M75.5207 9.01762C74.3706 9.01762 73.1334 9.24393 72.1775 10.0206C71.1776 10.6668 70.8458 11.2018 70.5023 11.5567H70.2185L71.1147 9.391L70.5023 8.80852C68.3217 9.7196 65.9917 10.317 63.5273 10.5859V11.5567C64.4384 11.6612 65.0209 11.8554 65.3047 12.1392C65.5735 12.4229 65.708 12.871 65.708 13.4834V25.2975C65.708 25.9995 65.6333 26.3729 65.1105 26.6268C64.8566 26.7612 64.6475 26.8359 64.5131 26.8807C64.3637 26.9106 64.0352 26.9703 63.5273 27.0749V28.1054H73.2953V27.0749C72.7128 26.9703 72.3543 26.9106 72.19 26.8807C72.0257 26.8359 71.8017 26.7612 71.503 26.6268C70.9056 26.3729 70.8458 25.9995 70.8458 25.2975V22.5792C71.8316 22.8779 72.8173 23.0273 73.7881 23.0273C75.5804 23.0273 77.4026 22.3851 78.8663 21.1902C80.33 20.0103 81.3008 18.0089 81.3008 15.6341C81.3008 13.5879 80.7183 11.9749 79.5533 10.795C78.3734 9.61503 77.0292 9.01762 75.5207 9.01762ZM73.3849 21.6233C72.5485 21.6233 71.9212 21.2649 71.4881 20.5629C71.0549 19.8609 70.8458 18.9797 70.8458 17.9492V14.4691C70.8458 13.8866 71.0848 13.2295 71.5627 12.4976C72.0257 11.7658 72.5784 11.4073 73.2057 11.4073C74.0271 11.4073 74.6694 11.9002 75.1622 12.8859C75.6551 13.8717 75.8941 15.1412 75.8941 16.6945C75.8941 19.9804 75.0577 21.6233 73.3849 21.6233Z" fill="white"/>
<path fill-rule="evenodd" clip-rule="evenodd" d="M45.3986 23.0068V21.9613C44.9655 21.8418 44.6668 21.7372 44.5025 21.6626C44.144 21.4983 43.8453 21.0203 43.8453 20.169V13.3135C44.607 12.4024 45.4136 11.9394 46.25 11.9394C46.8474 11.9394 47.2805 12.1186 47.5344 12.4771C47.7883 12.8356 47.9078 13.5077 47.9078 14.5083V20.169C47.9078 20.8112 47.8033 21.1846 47.3851 21.4535C47.1611 21.5879 46.9818 21.6924 46.8474 21.7372C46.698 21.782 46.4292 21.8567 46.0409 21.9613V23.0068H54.8231V21.9613C54.4497 21.8567 54.2107 21.782 54.0763 21.7372C53.9418 21.6924 53.7626 21.5879 53.5535 21.4535C53.1204 21.1846 53.0158 20.8262 53.0158 20.169V13.2239C53.8522 12.3725 54.6737 11.9394 55.4952 11.9394C56.6303 11.9394 57.1829 12.5518 57.1829 14.5083V20.169C57.1829 20.6917 56.9887 21.0801 56.8692 21.2892C56.8095 21.3937 56.6751 21.4983 56.466 21.6028C56.2419 21.7074 56.0926 21.7671 56.0179 21.782C55.9432 21.797 55.7491 21.8567 55.4354 21.9613V23.0068H64.2475V21.9613C63.7098 21.8418 63.3364 21.7372 63.1422 21.6626C62.724 21.4983 62.2909 21.0203 62.2909 20.169V13.9856C62.2909 12.5518 61.9922 11.4017 61.3947 10.5504C60.7824 9.69906 59.6473 9.26594 57.9745 9.26594C56.7348 9.26594 55.7341 9.51983 55.0023 10.0127C54.2555 10.5205 53.5386 11.2524 52.8665 12.2083H52.8067C52.2541 10.2517 50.8352 9.26594 48.5799 9.26594C47.2507 9.26594 46.3172 9.52285 45.3986 10.2069C44.8873 10.5176 44.5143 10.7663 44.2656 10.9528C44.1647 11.0284 44.0766 11.1041 43.9691 11.1963C43.8115 11.3315 43.6123 11.5023 43.2709 11.761L43.0388 11.6988L43.6512 9.63932L43.0388 9.05684C41.59 9.81856 39.4692 10.401 36.6762 10.8342V11.805C37.5126 11.7602 38.0652 11.8797 38.3191 12.1336C38.573 12.3875 38.7075 12.8206 38.7075 13.433V20.169C38.7075 20.8112 38.588 21.1846 38.1847 21.4535C37.9756 21.5879 37.1736 21.7398 35.868 21.7398C34.5624 21.7398 33.8785 20.6829 33.8649 19.706C33.8513 18.7291 33.8649 13.8064 33.8649 13.8064C33.8649 12.3576 33.4318 11.1926 32.5506 10.3413C31.6694 9.48996 30.4446 9.05684 28.8764 9.05684C27.9056 9.05684 26.8003 9.22112 25.5756 9.53477C24.3509 9.84842 23.2606 10.3264 22.2898 10.9686C21.3189 11.6108 20.841 12.3128 20.841 13.0447C20.841 13.4479 20.9904 13.8213 21.2891 14.1648C21.5728 14.5083 21.9761 14.6876 22.4839 14.6876C23.1262 14.6876 23.6638 14.4337 24.1268 13.9408C24.5898 13.4479 25.023 12.5518 25.4561 11.2673C25.6353 10.7595 25.9042 10.5056 26.2477 10.5056C27.099 10.5056 27.7413 10.6848 28.1445 11.0433C28.5478 11.4167 28.7569 12.1485 28.7569 13.2538V13.9259C28.4433 14.3441 27.8608 14.6726 27.5023 14.822C27.3231 14.8967 27.099 14.9863 26.8153 15.061C26.6276 15.1103 26.4922 15.1532 26.4047 15.1809C26.3599 15.1951 26.3277 15.2053 26.3074 15.2103C26.173 15.2551 25.949 15.3149 25.6652 15.3896C25.1781 15.5374 24.7518 15.665 24.3833 15.7753C24.1191 15.8544 23.8846 15.9246 23.6788 15.987C23.1859 16.1513 22.6631 16.3454 22.1105 16.5993C21.543 16.8532 21.1098 17.1221 20.8261 17.376C20.2286 17.9137 19.7656 18.7501 19.7656 19.7657C19.7656 20.8859 20.1689 21.7074 20.9754 22.2301C21.767 22.7529 22.708 23.0068 23.7983 23.0068C25.6951 23.0217 27.3529 22.2301 28.7569 20.632C28.8166 21.2444 29.1452 21.782 29.7576 22.2749C30.355 22.7678 30.9823 23.0068 31.6395 23.0068L34.7461 23.0075C34.9715 23.007 35.1847 23.0071 35.4859 23.0073C35.6742 23.0074 35.8971 23.0075 36.1788 23.0075H36.6762L45.3986 23.0068ZM25.2941 20.1988C25.5629 20.6319 25.9662 20.841 26.4889 20.841C27.1909 20.841 27.9377 20.3033 28.7591 19.2429V15.8525L26.8026 16.3454C25.5928 16.7038 24.8759 17.7045 24.8759 18.7351C24.8759 19.2877 25.0103 19.7657 25.2941 20.1988Z" fill="white"/>
<path d="M7.21186 17.0756C8.70397 19.6246 10.7556 21.0904 13.8642 20.4328C15.22 20.146 16.0891 19.9575 17.487 19.0766C17.9562 18.781 18.5892 19.1017 18.5892 19.6563C18.5892 20.4272 18.2732 21.1831 17.6215 21.595C15.9716 22.6377 13.8741 23.1062 11.8553 23.1062C8.32704 23.1062 5.47295 22.1653 3.338 20.2834C1.20305 18.424 0 15.8701 0 12.6441C0 9.30603 1.248 6.7297 3.51779 4.87026C5.76511 3.01082 8.57963 1.84936 12.2374 2.0923C15.0454 2.27882 16.2977 2.89947 17.781 4.01961C19.2642 5.13976 19.8326 6.82819 19.8326 7.37686C19.8326 8.30943 19.9289 9.33921 18.5892 9.61503C16.4754 10.0502 15.8077 8.49594 15.5428 7.62555C15.2779 6.75515 13.6777 4.45727 11.626 4.2683C7.33621 3.87318 6.01769 7.32264 5.71976 9.61503C5.42182 11.9074 5.71976 14.5266 7.21186 17.0756Z" fill="white"/>
<path d="M100.383 9.08757L101.025 9.67005V20.1997C101.025 20.827 101.16 21.2452 101.429 21.4394C101.682 21.6485 102.319 22.0034 103.042 21.992C103.765 21.9806 104.394 21.768 104.394 21.768C104.588 21.7232 104.797 21.6186 105.036 21.4842C105.514 21.2153 105.603 20.842 105.603 20.1997V13.7326C105.603 13.1202 105.469 12.6721 105.2 12.3883C104.916 12.1046 104.334 11.9253 103.423 11.8357V10.8649C106.201 10.4318 108.531 9.84929 110.398 9.08757L111.01 9.67005L110.741 11.7918H110.891C112.531 9.55359 113.743 9.08757 115.416 9.08757C115.804 9.08757 117.078 9.02357 117.256 9.36709C117.433 9.71061 116.301 10.6105 115.639 11.9161C114.977 13.2217 114.893 13.4704 114.893 13.4704C113.401 13.4704 112.28 13.7774 111.667 14.6287C111.055 15.48 110.741 16.4807 110.741 17.6308V20.1997C110.741 20.8569 110.876 21.2153 111.324 21.4842C111.548 21.6186 111.757 21.7232 111.981 21.768C112.19 21.8128 112.534 21.8875 112.997 21.992V23.0375H93.8711V21.992C94.6926 21.8277 95.2302 21.6485 95.4991 21.4394C95.753 21.2452 95.8874 20.827 95.8874 20.1997V13.7624C95.8874 13.1501 95.7679 12.702 95.514 12.4182C95.2601 12.1344 94.7075 11.9403 93.8711 11.8357V10.8649C97.142 10.2824 99.3077 9.685 100.383 9.08757Z" fill="white"/>
<path d="M125.793 20.408C123.419 20.408 121.895 18.7949 121.432 16.0617H129.557C130.319 14.4337 130.095 12.8654 128.9 11.342C127.705 9.81855 125.943 9.05684 123.628 9.05684C121.567 9.05684 119.789 9.68413 118.311 10.9238C116.817 12.1634 116.07 13.8811 116.07 16.0617C116.07 18.1975 116.772 19.9001 118.191 21.1697C119.595 22.4392 121.432 23.0665 123.717 23.0665C125.211 23.0665 126.495 22.7827 127.556 22.2002C128.616 21.6327 129.318 20.856 129.692 19.8852L128.975 19.2729C128.721 19.6014 128.273 19.8703 127.66 20.0794C127.048 20.3034 126.421 20.408 125.793 20.408ZM123.419 10.4458C124.151 10.4458 124.643 10.879 124.897 11.7452C125.136 12.6265 125.121 13.6122 124.852 14.7174H121.298V14.4486C121.298 11.7602 122.104 10.4458 123.419 10.4458Z" fill="white"/>
<path d="M86.5699 4.0634C87.2718 3.48091 88.0784 3.00297 88.9894 2.61464C90.212 2.08926 92.1657 1.65813 92.9467 1.65813C93.7277 1.65813 93.3923 2.00236 93.3923 2.93494C93.3923 2.93494 93.2944 2.94497 92.9467 2.99558C92.4945 3.06139 92.1396 3.19581 91.633 3.46597C91.185 3.71988 90.7817 4.03353 90.4233 4.40692C89.7063 5.16864 89.1239 6.55766 89.1239 8.30513V9.15646L91.8272 8.82788C91.7227 9.44024 91.6779 10.0825 91.6629 10.7844H89.1239V20.1491C89.1239 20.7764 89.3778 21.1946 89.8706 21.4187C90.3635 21.6427 91.185 21.8219 92.3649 21.9414V22.9869H81.5664V21.9414C82.4028 21.8219 83.0002 21.6427 83.3438 21.4187C83.6873 21.1946 83.8665 20.7764 83.8665 20.1491V10.7844H81.5664V9.79869L83.8665 9.35063H83.8964C84.0607 7.09534 85.136 5.22838 86.5699 4.0634Z" fill="white"/>
<path d="M97.3508 8.12775C99.0597 8.47453 100.719 7.40389 101.058 5.73641C101.187 5.09864 101.105 4.46593 100.858 3.90831C100.613 3.35562 99.808 2.60067 99.2866 2.26368C99.5328 4.49457 96.0419 3.69954 98.4713 0.980619C99.3464 0.00130289 96.6581 1.07827 95.8448 2.02182C95.0316 2.96537 94.9119 3.27458 94.741 4.27524C94.4194 6.15846 95.6419 7.78097 97.3508 8.12775Z" fill="#FF7A00"/>
</svg>
