<svg width="62" height="197" viewBox="0 0 62 197" fill="none" xmlns="http://www.w3.org/2000/svg">
<path d="M45.2428 46.5767C45.0597 47.7513 46.3333 49.1131 44.6104 49.7567C44.0978 49.957 42.9149 49.5501 43.1502 49.4136C43.307 49.3226 42.438 49.0135 42.569 48.5167C43.5505 44.3376 31.2639 26.6369 29.0695 23.2162C25.5097 17.8038 21.209 12.7403 17.6683 8.80595C17.4886 8.58652 17.3088 8.36709 17.2426 8.1627C16.8866 7.18773 18.494 6.255 18.943 6.57718C18.9138 6.70744 18.9659 6.88761 19.0854 7.09346C19.6656 8.00312 20.5543 8.99277 21.5243 10.0323C26.8336 15.6598 46.1706 39.3696 45.2428 46.5767Z" fill="#C1C1BB"/>
<path d="M17.9719 6.30054C20.2724 6.70059 23.3881 6.13565 25.7465 6.2377C26.8797 6.27632 28.6455 6.36775 29.6004 7.56099C30.0688 8.16717 30.3159 8.10886 30.0797 9.56148C30.0072 9.97913 29.9192 9.97711 29.9192 9.97711C29.9192 9.97711 29.6271 9.99042 29.0881 9.60131C27.7439 8.72905 26.4543 8.60207 25.0855 8.53119C23.2098 8.43407 21.3595 8.33825 19.5007 8.242C18.5121 8.19081 17.8045 8.11404 17.5762 7.94168C17.351 7.70929 17.1141 7.21925 17.1124 6.5971C17.1078 6.19553 17.3748 6.61224 17.6124 6.60447C17.6919 6.86945 17.561 6.21906 17.9719 6.30054Z" fill="#C1C1BB"/>
<path d="M17.0526 7.70432C16.6567 10.004 15.4293 12.4212 14.7463 14.6808C14.4087 15.7632 13.9107 17.4599 14.6705 18.7409C15.0619 19.376 14.9769 20 16.3613 20.2388C16.7608 20.3031 16.661 20.168 16.4592 20.1088C16.2574 20.0496 16.8473 19.5384 16.6743 18.9057C16.3313 17.359 16.6407 16.1008 17.0267 14.7857C17.5556 12.9835 18.0773 11.2057 18.6014 9.4197C18.8802 8.46989 19.0436 7.77721 18.9636 7.50684C18.8285 7.22031 18.8691 6.51487 18.31 6.31551C17.9502 6.18349 16.935 5.75065 16.85 5.97257C17.0622 6.13186 17.1143 7.29038 17.0526 7.70432Z" fill="#C1C1BB"/>
<path d="M31.9653 97.2893C36.029 97.429 43.9653 99.7623 44.9653 99.2892C45.9653 98.8161 46.4653 96.2273 44.9862 95.266C43.507 94.3048 27.4031 94.3098 19.7095 95.7901C18.2947 96.0527 16.9684 96.2678 15.8897 96.2273C15.6527 96.2062 15.4763 96.1349 15.3885 96.0161C14.8619 96.2468 14.6609 98.5051 15.6593 98.8161C15.8635 98.8898 16.1473 98.8595 16.4311 98.8293C21.7084 97.9667 25.4836 97.1564 31.9653 97.2893Z" fill="#C4C4C4"/>
<path d="M13.9181 96.973C15.8864 95.7167 17.8056 93.1981 19.6156 91.6828C20.4783 90.9469 21.8437 89.8234 23.3534 90.0603C24.1081 90.1919 24.2512 89.9822 25.0566 91.214C25.2848 91.5712 25.2184 91.6291 25.2184 91.6291C25.2184 91.6291 25.0117 91.8359 24.3514 91.9122C22.7706 92.1749 21.7329 92.9509 20.6746 93.8218C19.2242 95.0152 17.7935 96.1925 16.3563 97.3752C15.5919 98.0042 15.0177 98.4248 14.7329 98.4515C14.4099 98.4318 13.9045 98.2298 13.4836 97.7716C13.2093 97.4783 13.6875 97.6059 13.8577 97.4399C14.0951 97.5819 13.5598 97.19 13.9181 96.973Z" fill="#C1C1BB"/>
<path d="M15.5852 99.0986C17.2359 100.748 18.503 103.145 19.9553 105.006C20.645 105.906 21.7441 107.291 23.2288 107.409C23.9734 107.455 24.4342 107.884 25.4276 106.891C25.7105 106.602 25.5426 106.605 25.3778 106.736C25.2131 106.867 25.1356 106.09 24.5189 105.867C23.0574 105.255 22.2079 104.277 21.356 103.203C20.1885 101.732 19.0368 100.28 17.8798 98.8223C17.2645 98.0469 16.7928 97.514 16.5257 97.4235C16.2138 97.3687 15.6608 96.9287 15.1755 97.2706C14.8602 97.4884 13.9212 98.0683 14.0535 98.2657C14.306 98.1841 15.2826 98.8096 15.5852 99.0986Z" fill="#C1C1BB"/>
<path d="M45.6245 147.885C45.459 146.708 46.7529 145.366 45.0399 144.696C44.5303 144.488 43.3415 144.878 43.5747 145.018C43.7301 145.111 42.8566 145.407 42.9801 145.906C43.8989 150.099 28.8472 170.216 26.6016 173.603C22.961 178.961 18.5849 183.96 14.9856 187.841C14.8026 188.057 14.6196 188.274 14.5503 188.477C14.1797 189.447 15.773 190.404 16.2267 190.088C16.1994 189.958 16.2543 189.778 16.3768 189.574C16.9706 188.673 17.874 187.697 18.8596 186.672C24.2526 181.125 46.4441 155.106 45.6245 147.885Z" fill="#C1C1BB"/>
<path d="M14.9517 190.415C17.2542 190.027 20.367 190.607 22.7258 190.517C23.8592 190.484 25.6255 190.402 26.5864 189.213C27.0579 188.61 27.3046 188.669 27.0758 187.215C27.0055 186.797 26.9174 186.799 26.9174 186.799C26.9174 186.799 26.6254 186.784 26.0844 187.171C24.7358 188.036 23.4456 188.157 22.0765 188.22C20.2003 188.308 18.3495 188.395 16.4903 188.481C15.5015 188.528 14.7935 188.601 14.5643 188.772C14.338 189.003 14.0986 189.492 14.0937 190.114C14.0871 190.516 14.3561 190.1 14.5937 190.109C14.6745 189.845 14.5404 190.494 14.9517 190.415Z" fill="#C1C1BB"/>
<path d="M14.3514 188.933C13.99 186.627 12.799 184.192 12.15 181.923C11.8286 180.835 11.3562 179.131 12.1351 177.862C12.536 177.233 12.4603 176.607 13.8482 176.389C14.2486 176.331 14.1468 176.465 13.9441 176.521C13.7415 176.577 14.3236 177.097 14.1412 177.727C13.775 179.268 14.0655 180.531 14.4317 181.852C14.9335 183.662 15.4285 185.447 15.9258 187.241C16.1903 188.195 16.3433 188.89 16.2592 189.159C16.1198 189.443 16.1499 190.149 15.5878 190.34C15.2261 190.467 14.2045 190.885 14.1228 190.661C14.3374 190.505 14.4069 189.348 14.3514 188.933Z" fill="#C1C1BB"/>
</svg>
