<svg width="47" height="47" viewBox="0 0 47 47" fill="none" xmlns="http://www.w3.org/2000/svg">
<path fill-rule="evenodd" clip-rule="evenodd" d="M11.8098 11.8094C12.5908 11.0283 13.8571 11.0283 14.6382 11.8094L23.4477 20.6188L32.2571 11.8094C33.0382 11.0283 34.3045 11.0283 35.0855 11.8094C35.8666 12.5904 35.8666 13.8568 35.0855 14.6378L26.2761 23.4473L35.0855 32.2567C35.8666 33.0378 35.8666 34.3041 35.0855 35.0852C34.3045 35.8662 33.0382 35.8662 32.2571 35.0852L23.4477 26.2757L14.6382 35.0852C13.8571 35.8662 12.5908 35.8662 11.8098 35.0852C11.0287 34.3041 11.0287 33.0378 11.8098 32.2567L20.6192 23.4473L11.8098 14.6378C11.0287 13.8568 11.0287 12.5904 11.8098 11.8094Z" fill="#EB5757"/>
</svg>
