<svg width="28" height="26" viewBox="0 0 28 26" fill="none" xmlns="http://www.w3.org/2000/svg">
<path fill-rule="evenodd" clip-rule="evenodd" d="M20.3556 3.54106C18.7354 3.32874 16.8995 3.91838 15.4422 5.8489C15.1588 6.22445 14.7155 6.44522 14.245 6.44521C13.7744 6.44519 13.3312 6.22439 13.0477 5.84882C11.5908 3.91835 9.75498 3.32875 8.13497 3.54106C6.46607 3.75979 4.90476 4.84419 4.08991 6.51894C3.29327 8.15625 3.15399 10.4939 4.62266 13.2959C6.04087 16.0017 8.97057 19.1422 14.245 22.321C19.5197 19.1422 22.4496 16.0017 23.8679 13.2959C25.3367 10.4938 25.1975 8.15622 24.4008 6.51894C23.586 4.84422 22.0247 3.7598 20.3556 3.54106ZM26.525 14.6887C24.6907 18.1882 21.0457 21.8586 14.9966 25.3611C14.5317 25.6303 13.9583 25.6303 13.4934 25.3611C7.44452 21.8586 3.79975 18.1881 1.96553 14.6886C0.115773 11.1595 0.124038 7.81299 1.39227 5.2064C2.64229 2.63725 5.06318 0.917997 7.74513 0.566502C9.98431 0.273037 12.3263 0.94202 14.2451 2.71361C16.1641 0.942015 18.5062 0.273039 20.7454 0.566499C23.4275 0.917987 25.8484 2.63722 27.0985 5.2064C28.3667 7.81301 28.3749 11.1596 26.525 14.6887Z" fill="white"/>
</svg>
