<svg width="207" height="35" viewBox="0 0 207 35" fill="none" xmlns="http://www.w3.org/2000/svg">
<path d="M103.413 21.3401L111.782 33.6796C112.154 34.2284 112.774 34.557 113.437 34.557L115.925 34.557C116.695 34.557 117.396 34.1152 117.729 33.4209L131.487 4.69366C131.805 4.02989 131.321 3.26172 130.585 3.26172L125.381 3.26172C125.003 3.26172 124.657 3.47536 124.487 3.8137L114.163 24.4153L108.85 17.3721C108.378 16.7465 107.582 16.4572 106.861 16.7633C106.391 16.9628 105.817 17.2461 105.2 17.6391C104.409 18.1426 103.797 18.8262 103.384 19.3835C102.953 19.9645 103.007 20.7414 103.413 21.3401Z" fill="#3CD5B9"/>
<path d="M14.9536 34.2447C18.8056 34.2447 22.0117 33.1873 24.5478 31.0966C27.06 29.0058 28.328 26.074 28.328 22.3491C28.328 19.1049 27.3471 16.5095 25.4091 14.587C23.4472 12.6645 21.246 11.7033 18.8295 11.7033C15.8867 11.7033 13.5659 13.3374 11.8193 16.6297V0.937222L10.8383 0C7.65623 1.51397 4.04344 2.4512 0 2.81167V4.3737C1.84228 4.49386 2.67968 4.78224 3.18212 5.23883C3.42138 5.52721 3.541 5.57527 3.56493 5.9838C3.58886 6.20009 3.58886 6.34427 3.58886 6.41637V7.47375V26.5787C3.58886 31.6973 7.36912 34.2447 14.9536 34.2447ZM15.456 31.9857C14.2358 31.9857 13.3266 31.4811 12.7285 30.4717C12.1303 29.4624 11.8193 28.357 11.8193 27.1794V18.8886C13.0395 16.6537 14.4033 15.5483 15.9345 15.5483C17.2504 15.5483 18.1835 16.2692 18.7817 17.7111C19.3798 19.177 19.6669 21.0034 19.6669 23.1902C19.6669 25.7135 19.332 27.8043 18.6381 29.4624C17.9443 31.1446 16.8916 31.9857 15.456 31.9857Z" fill="#192D34"/>
<path d="M41.9626 33.8858C45.5193 33.8858 48.4553 32.8584 50.8185 30.8275C53.1578 28.7966 54.3274 26.0251 54.3274 22.5367C54.3274 19.1439 53.2294 16.4441 51.0572 14.461C48.8611 12.4779 45.9967 11.4744 42.4878 11.4744C38.9311 11.4744 35.9951 12.5018 33.6558 14.5326C31.2927 16.5874 30.123 19.359 30.123 22.8473C30.123 26.2401 31.2211 28.9161 33.4171 30.8992C35.5893 32.8823 38.4537 33.8858 41.9626 33.8858ZM42.7504 31.831C39.9098 31.831 38.5015 28.3188 38.4776 21.2704C38.5015 16.1096 39.5756 13.5291 41.7239 13.5291C44.5645 13.553 45.9728 17.0653 45.9728 24.1136C45.9728 29.2506 44.8987 31.831 42.7504 31.831Z" fill="#192D34"/>
<path d="M67.5994 33.8858C71.156 33.8858 74.0921 32.8584 76.4552 30.8275C78.7945 28.7966 79.9641 26.0251 79.9641 22.5367C79.9641 19.1439 78.8661 16.4441 76.6939 14.461C74.4978 12.4779 71.6334 11.4744 68.1245 11.4744C64.5679 11.4744 61.6318 12.5018 59.2925 14.5326C56.9294 16.5874 55.7598 19.359 55.7598 22.8473C55.7598 26.2401 56.8578 28.9161 59.0538 30.8992C61.226 32.8823 64.0905 33.8858 67.5994 33.8858ZM68.3871 31.831C65.5465 31.831 64.1382 28.3188 64.1143 21.2704C64.1382 16.1096 65.2124 13.5291 67.3607 13.5291C70.2012 13.553 71.6096 17.0653 71.6096 24.1136C71.6096 29.2506 70.5354 31.831 68.3871 31.831Z" fill="#192D34"/>
<path d="M99.8329 16.9852L97.4823 19.1891L105.23 30.281L107.578 33.7068H97.4103C97.4103 32.3413 97.1225 31.2632 96.5469 30.5206L92.1575 24.244L89.9988 26.2563V29.1551C89.9988 30.1612 90.2146 30.832 90.6704 31.1434C91.1261 31.4788 92.0855 31.7663 93.5966 32.0298V33.7068H78.1738V32.0298C79.6849 31.7663 80.6444 31.4788 81.1001 31.1674C81.5318 30.856 81.7477 30.1852 81.7477 29.1551V7.45047V6.39638V6.39632C81.7477 6.32443 81.7477 6.18072 81.7237 5.96517C81.6997 5.55791 81.5558 5.50999 81.3399 5.22252C80.8602 4.76734 79.9728 4.47986 78.1738 4.36008V2.80291C82.1075 2.44356 85.7293 1.50926 89.0154 0L89.9988 0.934303V23.0701L97.3144 16.2904C98.7775 14.9249 98.1779 14.1104 95.5155 13.8469V12.122H106.597V13.8469C104.366 13.9666 102.543 14.8051 101.704 15.428C101.272 15.7394 100.648 16.2665 99.8329 16.9852Z" fill="#192D34"/>
<path d="M196.747 34.7012C199.789 34.7012 202.256 34.1517 204.149 33.0527C206.041 31.9537 206.999 30.1618 206.999 27.6771C206.999 25.3118 206.089 23.4243 204.316 22.1581C203.43 21.513 202.568 21.0113 201.729 20.6529C200.891 20.2945 199.909 19.9123 198.759 19.5061C196.268 18.6699 195.023 17.5948 195.023 16.2568C195.023 14.9428 195.933 14.2977 197.777 14.2977C200.101 14.2977 201.753 15.8268 202.688 18.9088H205.274L205.179 14.1544C205.155 14.1305 204.987 14.0349 204.7 13.8915C204.388 13.7482 204.197 13.6526 204.077 13.6048C203.861 13.5093 203.047 13.1031 202.592 12.9837C201.466 12.6731 200.029 12.2669 198.16 12.2908C195.406 12.2908 193.178 12.8642 191.478 14.0349C189.753 15.2056 188.891 16.9019 188.891 19.1477C188.891 21.5608 189.897 23.496 191.621 24.7145C193.346 25.933 194.711 26.5541 196.651 27.1275C198.184 27.5815 199.214 28.0593 199.765 28.5611C200.316 29.0628 200.58 29.684 200.58 30.4007C200.556 31.9298 199.502 32.6943 197.37 32.6943C195.741 32.6943 194.52 32.3121 193.681 31.5236C192.843 30.7352 192.124 29.5645 191.501 27.9638H188.891L188.986 32.766C191.454 34.0561 194.041 34.7012 196.747 34.7012Z" fill="#192D34"/>
<path d="M181.226 30.4483C177.405 30.4483 174.954 27.8679 174.209 23.4955H187.282C188.507 20.8912 188.147 18.3825 186.224 15.9454C184.302 13.5083 181.466 12.2898 177.742 12.2898C174.425 12.2898 171.566 13.2933 169.187 15.2764C166.784 17.2595 165.582 20.0072 165.582 23.4955C165.582 26.9122 166.711 29.636 168.994 31.6668C171.253 33.6977 174.209 34.7012 177.886 34.7012C180.289 34.7012 182.355 34.2473 184.062 33.3154C185.768 32.4075 186.897 31.1651 187.498 29.6121L186.345 28.6325C185.936 29.1581 185.215 29.5882 184.23 29.9227C183.245 30.2811 182.235 30.4483 181.226 30.4483ZM177.405 14.5118C178.583 14.5118 179.376 15.2047 179.784 16.5905C180.169 18.0002 180.145 19.5771 179.712 21.3452H173.993V20.9151C173.993 16.6144 175.29 14.5118 177.405 14.5118Z" fill="#192D34"/>
<path d="M166.781 14.8912C166.781 14.0748 166.853 13.1623 167.022 12.1298L160.383 12.6821V7.80762H158.314C154.923 10.0648 151.363 11.7937 147.658 12.9703V14.8912H152.156V30.6193C152.156 31.7478 152.637 32.7083 153.575 33.5007C154.514 34.2931 155.813 34.7013 157.52 34.7013C160.816 34.101 163.871 33.0925 166.733 31.6758V30.043C162.5 31.4597 160.383 30.8594 160.383 28.2661V14.8912H166.781Z" fill="#192D34"/>
<path d="M137.707 34.7012C141.29 34.7012 144.247 33.6738 146.628 31.6429C148.985 29.6121 150.163 26.8405 150.163 23.3522C150.163 19.9594 149.057 17.2595 146.868 15.2764C144.656 13.2933 141.771 12.2898 138.236 12.2898C134.653 12.2898 131.695 13.3172 129.338 15.3481C126.958 17.4028 125.779 20.1744 125.779 23.6628C125.779 27.0555 126.885 29.7315 129.098 31.7146C131.286 33.6977 134.172 34.7012 137.707 34.7012ZM138.5 32.6464C135.639 32.6464 134.22 29.1342 134.196 22.0858C134.22 16.925 135.302 14.3446 137.466 14.3446C140.328 14.3685 141.746 17.8807 141.746 24.9291C141.746 30.066 140.664 32.6464 138.5 32.6464Z" fill="#192D34"/>
</svg>
